<svg width="679" height="92" viewBox="0 0 679 92" fill="none" xmlns="http://www.w3.org/2000/svg">
<path d="M666.446 11.566L666.401 78.7222L10.7197 79.1854L10.7646 12.0292L666.446 11.566Z" stroke="url(#paint0_linear_10601_3491)" stroke-width="1.73561"/>
<path d="M677.997 8.83579L677.991 17.91L659.697 17.9229L659.703 8.84871L677.997 8.83579Z" fill="white" stroke="url(#paint1_linear_10601_3491)" stroke-width="1.15707"/>
<path d="M19.9965 6.83609L19.991 15.9103L1.69706 15.922L1.70256 6.84778L19.9965 6.83609Z" fill="white" stroke="url(#paint2_linear_10601_3491)" stroke-width="1.15707"/>
<path d="M676.997 75.8358L676.991 84.91L658.697 84.9229L658.703 75.8487L676.997 75.8358Z" fill="white" stroke="url(#paint3_linear_10601_3491)" stroke-width="1.15707"/>
<path d="M18.9965 73.8361L18.991 82.9103L0.697051 82.922L0.702563 73.8478L18.9965 73.8361Z" fill="white" stroke="url(#paint4_linear_10601_3491)" stroke-width="1.15707"/>
<defs>
<linearGradient id="paint0_linear_10601_3491" x1="667.292" y1="45.1432" x2="9.87461" y2="44.7042" gradientUnits="userSpaceOnUse">
<stop stop-color="#8746EB"/>
<stop offset="1" stop-color="#DC49A6"/>
</linearGradient>
<linearGradient id="paint1_linear_10601_3491" x1="678.572" y1="13.3728" x2="659.122" y2="13.3598" gradientUnits="userSpaceOnUse">
<stop stop-color="#8746EB"/>
<stop offset="1" stop-color="#DC49A6"/>
</linearGradient>
<linearGradient id="paint2_linear_10601_3491" x1="20.572" y1="11.3732" x2="1.1217" y2="11.3614" gradientUnits="userSpaceOnUse">
<stop stop-color="#8746EB"/>
<stop offset="1" stop-color="#DC49A6"/>
</linearGradient>
<linearGradient id="paint3_linear_10601_3491" x1="677.572" y1="80.3728" x2="658.122" y2="80.3598" gradientUnits="userSpaceOnUse">
<stop stop-color="#8746EB"/>
<stop offset="1" stop-color="#DC49A6"/>
</linearGradient>
<linearGradient id="paint4_linear_10601_3491" x1="19.572" y1="78.3732" x2="0.121697" y2="78.3613" gradientUnits="userSpaceOnUse">
<stop stop-color="#8746EB"/>
<stop offset="1" stop-color="#DC49A6"/>
</linearGradient>
</defs>
</svg>
